<?xml version="1.0" encoding="UTF-8"?>
<svg id="Layer_1" data-name="Layer 1" xmlns="http://www.w3.org/2000/svg" xmlns:xlink="http://www.w3.org/1999/xlink" viewBox="0 0 467.45 398.92">
  <defs>
    <linearGradient id="linear-gradient" x1="236.53" y1="73.69" x2="565.69" y2="402.84" gradientTransform="translate(-124.09 -9.19)" gradientUnits="userSpaceOnUse">
      <stop offset="0" stop-color="#24d366"/>
      <stop offset=".14" stop-color="#28d363"/>
      <stop offset=".3" stop-color="#35d55d"/>
      <stop offset=".46" stop-color="#4ad853"/>
      <stop offset=".62" stop-color="#67dc44"/>
      <stop offset=".78" stop-color="#8ee131"/>
      <stop offset=".94" stop-color="#bce71a"/>
      <stop offset="1" stop-color="#cfea11"/>
    </linearGradient>
    <linearGradient id="linear-gradient-2" gradientTransform="translate(-.75 -153.93) rotate(30.73)" xlink:href="#linear-gradient"/>
    <linearGradient id="linear-gradient-3" gradientTransform="translate(37.63 -164.48) rotate(30.73)" xlink:href="#linear-gradient"/>
  </defs>
  <g>
    <path d="m450.53,398.92c-2.58,0-5.18-.6-7.61-1.81l-48.31-24.17c-31.42-15.72-66.6-24.03-101.73-24.03H74.83c-41.26,0-74.83-33.57-74.83-74.83V74.81C0,33.56,33.56,0,74.81,0h295.17c41.26,0,74.83,33.56,74.83,74.81v155.54c0,24.02,2.38,48.15,7.07,71.71l15.24,76.59c1.27,6.4-1.16,12.82-6.34,16.78-3.03,2.31-6.62,3.49-10.25,3.49ZM74.81,27.69c-25.98,0-47.12,21.14-47.12,47.12v199.27c0,26,21.15,47.14,47.14,47.14h218.06c39.41,0,78.87,9.32,114.12,26.95l28.68,14.35-10.96-55.05c-5.04-25.34-7.6-51.28-7.6-77.12V74.81c0-25.98-21.15-47.12-47.14-47.12H74.81Z" style="fill: #009912; stroke-width: 0px;"/>
    <rect x="124.07" y="126.73" width="153.82" height="32.31" rx="16.15" ry="16.15" transform="translate(-44.79 122.75) rotate(-30.73)" style="fill: #009912; stroke-width: 0px;"/>
    <rect x="162.45" y="191.3" width="153.82" height="32.31" rx="16.15" ry="16.15" transform="translate(-72.39 151.42) rotate(-30.73)" style="fill: #009912; stroke-width: 0px;"/>
  </g>
  <g>
    <path d="m450.53,398.92c-2.58,0-5.18-.6-7.61-1.81l-48.31-24.17c-31.42-15.72-66.6-24.03-101.73-24.03H74.83c-41.26,0-74.83-33.57-74.83-74.83V74.81C0,33.56,33.56,0,74.81,0h295.17c41.26,0,74.83,33.56,74.83,74.81v155.54c0,24.02,2.38,48.15,7.07,71.71l15.24,76.59c1.27,6.4-1.16,12.82-6.34,16.78-3.03,2.31-6.62,3.49-10.25,3.49ZM74.81,27.69c-25.98,0-47.12,21.14-47.12,47.12v199.27c0,26,21.15,47.14,47.14,47.14h218.06c39.41,0,78.87,9.32,114.12,26.95l28.68,14.35-10.96-55.05c-5.04-25.34-7.6-51.28-7.6-77.12V74.81c0-25.98-21.15-47.12-47.14-47.12H74.81Z" style="fill: url(#linear-gradient); stroke-width: 0px;"/>
    <rect x="124.07" y="126.73" width="153.82" height="32.31" rx="16.15" ry="16.15" transform="translate(-44.79 122.75) rotate(-30.73)" style="fill: url(#linear-gradient-2); stroke-width: 0px;"/>
    <rect x="162.45" y="191.3" width="153.82" height="32.31" rx="16.15" ry="16.15" transform="translate(-72.39 151.42) rotate(-30.73)" style="fill: url(#linear-gradient-3); stroke-width: 0px;"/>
  </g>
</svg>